<?xml version="1.0" encoding="iso-8859-1"?>
<!DOCTYPE svg PUBLIC "-//W3C//DTD SVG 1.0//EN" "http://www.w3.org/TR/2001/REC-SVG-20010904/DTD/svg10.dtd">
<!-- Creator: CorelDRAW -->
<svg xmlns="http://www.w3.org/2000/svg" xmlns:odm="http://product.corel.com/CGS/11/cddns/" xml:space="preserve" width="773px" height="1000px" style="shape-rendering:geometricPrecision; text-rendering:geometricPrecision; image-rendering:optimizeQuality; fill-rule:evenodd"
     viewBox="0 0 774 1000">
 <defs>
  <style type="text/css">
   <![CDATA[
    .fil0 {fill:#792177}
   ]]>
  </style>
 </defs>
 <g id="Capa 1">
  <path class="fil0" d="M131 549l12 -11 16 -14 49 -41 20 23 -49 42 -16 13 -13 11 -32 10 13 -33zm82 -70l10 -9c4,-3 10,-3 14,1l7 9c3,4 3,10 -1,14l-10 8 -20 -23z"/>
  <path class="fil0" d="M78 447l11 0 0 13c-2,2 -3,4 -3,7 0,5 3,9 8,9 5,0 9,-4 9,-9 0,-3 -2,-5 -4,-7l0 -13 29 0 0 13c-3,1 -4,4 -4,7 0,4 4,9 8,9 5,0 9,-4 9,-9 0,-3 -2,-6 -4,-7l0 -13 29 0 0 13c-2,2 -4,4 -4,7 0,5 4,9 9,9 4,0 8,-4 8,-9 0,-3 -1,-5 -4,-7l0 -13 11 0c6,0 12,5 12,12l0 20 -28 24 -25 21 -19 17 -20 51 50 -14 19 -17 23 -20 0 70c0,7 -6,12 -12,12l-108 0c-6,0 -12,-5 -12,-12l0 -152c0,-7 6,-12 12,-12z"/>
 </g>
</svg>
