<?xml version="1.0" encoding="iso-8859-1"?>
<!DOCTYPE svg PUBLIC "-//W3C//DTD SVG 1.0//EN" "http://www.w3.org/TR/2001/REC-SVG-20010904/DTD/svg10.dtd">
<!-- Creator: CorelDRAW -->
<svg xmlns="http://www.w3.org/2000/svg" xmlns:odm="http://product.corel.com/CGS/11/cddns/" xml:space="preserve" width="773px" height="1000px" style="shape-rendering:geometricPrecision; text-rendering:geometricPrecision; image-rendering:optimizeQuality; fill-rule:evenodd"
     viewBox="0 0 774 1000">
 <defs>
  <style type="text/css">
   <![CDATA[
    .fil0 {fill:#792177}
    .fil1 {fill:#79BCE5}
    .fil2 {fill:#FFFFFF}
   ]]>
  </style>
 </defs>
 <g id="Capa 1">
  <path class="fil0" d="M129 807c24,9 42,32 42,60 0,34 -27,35 -62,35 -35,0 -63,-1 -63,-35 0,-27 17,-51 41,-59 -15,-8 -26,-24 -26,-42 0,-25 21,-46 47,-46 25,0 46,21 46,46 0,18 -10,34 -25,41z"/>
  <path class="fil1" d="M189 686c37,0 67,23 67,51 0,23 -20,42 -47,48 -3,11 -11,19 -22,23 -9,3 -19,2 -27,-2 2,-1 3,-1 5,-2 9,-3 16,-9 20,-16 -11,-1 -20,-3 -29,-6 2,-5 3,-10 3,-15 0,-22 -14,-41 -34,-48 10,-19 35,-33 64,-33z"/>
  <path class="fil2" d="M166 707l44 0c3,0 6,3 6,6l0 0c0,4 -3,6 -6,6l-44 0c-4,0 -6,-2 -6,-6l0 0c0,-3 2,-6 6,-6z"/>
  <path class="fil2" d="M180 732l44 0c4,0 6,2 6,6l0 0c0,3 -2,5 -6,5l-44 0c-3,0 -6,-2 -6,-5l0 0c0,-4 3,-6 6,-6z"/>
  <path class="fil2" d="M171 754l45 0c3,0 6,3 6,6l0 0c0,3 -3,6 -6,6l-45 0c-3,0 -6,-3 -6,-6l0 0c0,-3 3,-6 6,-6z"/>
  <path class="fil0" d="M227 850c12,4 21,16 21,31 0,17 -14,18 -32,18 -18,0 -32,-1 -32,-18 0,-14 9,-26 21,-31 -8,-4 -13,-12 -13,-21 0,-13 10,-24 24,-24 13,0 23,11 23,24 0,9 -5,17 -12,21z"/>
 </g>
</svg>
