<svg id="svg" version="1.1" width="400" height="416.6666666666667" viewBox="0 0 400 416.6666666666667" xmlns="http://www.w3.org/2000/svg" xmlns:xlink="http://www.w3.org/1999/xlink" ><g id="svgg"><path id="path0" d="M113.496 41.154 L 113.275 42.000 75.037 42.000 C 53.978 42.000,36.800 42.154,36.800 42.344 C 36.800 42.533,36.172 43.298,35.404 44.044 C 34.637 44.790,34.007 45.543,34.004 45.717 C 34.000 46.065,33.658 46.502,31.659 48.715 L 30.318 50.200 21.344 50.321 L 12.369 50.443 10.654 52.121 C 9.711 53.045,8.706 54.385,8.421 55.100 C 8.136 55.815,7.790 56.403,7.651 56.406 C 7.513 56.410,6.791 56.950,6.046 57.606 C 4.871 58.642,4.380 58.800,2.346 58.800 L 0.000 58.800 0.000 233.400 L 0.000 408.000 2.380 408.000 C 5.920 408.000,8.462 410.401,8.722 413.989 L 8.896 416.400 162.800 416.400 L 316.704 416.400 316.875 414.030 C 317.020 412.025,317.244 411.458,318.323 410.354 C 319.026 409.636,319.600 408.922,319.600 408.767 C 319.600 408.613,320.095 408.364,320.700 408.214 C 321.305 408.064,322.565 407.156,323.500 406.198 L 325.200 404.455 325.200 341.227 C 325.200 299.342,325.065 278.000,324.800 278.000 C 324.580 278.000,324.400 277.746,324.400 277.435 C 324.400 276.540,321.184 276.133,320.585 276.953 C 320.325 277.309,319.937 277.600,319.723 277.600 C 319.510 277.600,319.080 278.095,318.768 278.700 C 318.456 279.305,318.101 279.890,317.978 280.000 C 317.855 280.110,317.520 280.781,317.233 281.491 C 316.879 282.366,316.210 283.003,315.155 283.468 C 314.300 283.845,313.600 284.266,313.600 284.402 C 313.600 284.539,312.994 284.888,312.254 285.179 C 311.336 285.539,310.739 286.136,310.379 287.054 C 310.088 287.794,309.739 288.400,309.602 288.400 C 309.466 288.400,309.045 289.100,308.668 289.955 C 308.203 291.010,307.566 291.679,306.691 292.033 C 305.981 292.320,305.310 292.655,305.200 292.778 C 305.090 292.901,304.505 293.256,303.900 293.568 C 303.295 293.880,302.800 294.356,302.800 294.625 C 302.800 294.894,302.530 295.218,302.200 295.345 C 301.713 295.532,301.600 296.475,301.600 300.359 C 301.600 304.078,301.466 305.276,301.000 305.743 C 300.670 306.073,300.400 306.510,300.400 306.713 C 300.400 307.202,297.976 309.200,297.384 309.200 C 297.130 309.200,296.552 309.515,296.099 309.900 C 295.645 310.285,294.905 310.859,294.454 311.176 C 294.003 311.493,293.412 312.303,293.140 312.976 C 292.868 313.649,292.545 314.290,292.423 314.400 C 292.300 314.510,292.008 314.948,291.773 315.373 C 291.539 315.799,290.999 316.339,290.573 316.573 C 290.148 316.808,289.672 317.180,289.515 317.400 C 289.347 317.634,286.896 317.800,283.600 317.800 C 280.304 317.800,277.853 317.634,277.685 317.400 C 277.528 317.180,277.052 316.808,276.627 316.573 C 276.201 316.339,275.661 315.799,275.427 315.373 C 275.192 314.948,274.900 314.510,274.777 314.400 C 274.655 314.290,274.332 313.649,274.060 312.976 C 273.788 312.303,273.197 311.493,272.746 311.176 C 272.295 310.859,271.555 310.285,271.101 309.900 C 270.648 309.515,270.070 309.200,269.816 309.200 C 269.116 309.200,266.800 307.159,266.800 306.542 C 266.800 306.244,266.638 306.000,266.439 306.000 C 266.241 306.000,265.890 305.460,265.660 304.800 C 265.430 304.140,265.052 303.600,264.821 303.600 C 264.589 303.600,264.400 303.420,264.400 303.200 C 264.400 302.466,262.995 301.383,261.105 300.661 C 259.600 300.087,259.099 299.640,258.540 298.374 C 258.158 297.508,257.734 296.800,257.598 296.800 C 257.461 296.800,257.112 296.194,256.821 295.454 C 256.461 294.536,255.864 293.939,254.946 293.579 C 254.206 293.288,253.600 292.916,253.600 292.752 C 253.600 292.588,253.195 292.327,252.700 292.173 C 251.547 291.813,250.187 290.453,249.827 289.300 C 249.673 288.805,249.412 288.400,249.248 288.400 C 249.084 288.400,248.712 287.794,248.421 287.054 C 248.061 286.136,247.464 285.539,246.546 285.179 C 245.806 284.888,245.200 284.539,245.200 284.402 C 245.200 284.266,244.492 283.842,243.626 283.460 C 242.360 282.901,241.913 282.400,241.339 280.895 C 240.617 279.005,239.534 277.600,238.800 277.600 C 238.580 277.600,238.400 277.411,238.400 277.179 C 238.400 276.948,237.860 276.570,237.200 276.340 C 236.540 276.110,236.000 275.759,236.000 275.561 C 236.000 275.362,235.756 275.200,235.458 275.200 C 234.841 275.200,232.800 272.884,232.800 272.184 C 232.800 271.930,232.485 271.352,232.100 270.899 C 231.715 270.445,231.135 269.697,230.811 269.236 C 230.487 268.775,229.407 268.089,228.411 267.711 C 226.617 267.030,225.239 265.833,225.213 264.933 C 225.206 264.677,224.975 264.392,224.700 264.301 C 224.345 264.183,224.162 262.662,224.067 259.042 C 223.964 255.108,223.805 253.900,223.367 253.732 C 223.055 253.612,222.800 253.286,222.800 253.006 C 222.800 252.726,222.260 252.273,221.600 252.000 C 220.940 251.727,220.400 251.381,220.400 251.232 C 220.400 251.083,219.782 250.737,219.026 250.464 C 218.154 250.149,217.461 249.535,217.129 248.784 C 216.840 248.133,216.486 247.600,216.341 247.600 C 216.197 247.600,215.890 247.060,215.660 246.400 C 215.430 245.740,215.052 245.200,214.821 245.200 C 214.589 245.200,214.400 244.960,214.400 244.668 C 214.400 244.375,213.905 243.880,213.300 243.568 C 212.695 243.256,212.110 242.901,212.000 242.778 C 211.890 242.655,211.236 242.327,210.547 242.048 C 209.785 241.740,209.003 240.967,208.547 240.071 C 208.136 239.262,207.696 238.510,207.568 238.400 C 207.440 238.290,207.095 237.645,206.800 236.968 C 205.864 234.815,201.801 234.145,201.300 236.061 C 201.194 236.467,200.957 236.800,200.774 236.800 C 200.591 236.800,200.387 240.933,200.321 245.985 L 200.200 255.170 198.729 256.485 C 197.920 257.208,196.983 258.025,196.646 258.300 C 195.857 258.945,46.000 259.044,46.000 258.400 C 46.000 258.180,45.755 258.000,45.456 258.000 C 45.157 258.000,44.212 257.340,43.356 256.533 L 41.800 255.067 41.679 246.157 L 41.558 237.247 43.356 235.424 C 44.345 234.421,45.356 233.600,45.603 233.600 C 46.183 233.600,50.400 229.391,50.400 228.811 C 50.400 228.569,51.228 227.565,52.240 226.582 L 54.081 224.793 121.347 224.897 L 188.613 225.000 190.107 226.583 C 190.928 227.454,191.600 228.377,191.600 228.635 C 191.600 229.930,195.559 233.273,196.776 233.005 C 199.272 232.457,199.829 219.200,197.356 219.200 C 197.072 219.200,196.696 218.964,196.520 218.677 C 196.344 218.389,195.589 217.906,194.843 217.604 C 191.571 216.282,190.800 214.561,190.800 208.589 C 190.800 203.208,191.413 201.127,193.236 200.320 C 193.876 200.036,194.400 199.686,194.400 199.541 C 194.400 199.397,194.940 199.090,195.600 198.860 C 196.260 198.630,196.800 198.252,196.800 198.021 C 196.800 197.789,197.040 197.600,197.332 197.600 C 197.625 197.600,198.120 197.105,198.432 196.500 C 198.744 195.895,199.099 195.310,199.222 195.200 C 199.345 195.090,199.680 194.419,199.967 193.709 C 200.321 192.834,200.990 192.197,202.045 191.732 C 202.900 191.355,203.600 190.934,203.600 190.798 C 203.600 190.661,204.206 190.312,204.946 190.021 C 205.864 189.661,206.461 189.064,206.821 188.146 C 207.112 187.406,207.461 186.800,207.598 186.800 C 207.734 186.800,208.160 186.088,208.544 185.218 C 209.052 184.066,209.616 183.501,210.621 183.138 C 211.379 182.864,212.000 182.495,212.000 182.320 C 212.000 182.144,212.360 182.000,212.800 182.000 C 213.240 182.000,213.600 182.168,213.600 182.373 C 213.600 182.578,214.005 182.873,214.500 183.027 C 215.653 183.387,217.013 184.747,217.373 185.900 C 217.527 186.395,217.788 186.800,217.952 186.800 C 218.116 186.800,218.482 187.389,218.764 188.109 C 219.511 190.012,220.716 190.400,225.880 190.400 C 228.568 190.400,230.400 190.559,230.400 190.792 C 230.400 191.008,230.830 191.293,231.356 191.425 C 232.527 191.719,233.928 193.273,234.499 194.913 C 235.022 196.413,237.329 198.717,238.636 199.045 C 239.166 199.178,239.600 199.447,239.600 199.643 C 239.600 199.840,239.866 200.000,240.191 200.000 C 240.516 200.000,241.097 200.495,241.482 201.100 C 241.867 201.705,242.296 202.290,242.437 202.400 C 242.577 202.510,242.816 202.996,242.967 203.480 C 243.379 204.800,245.349 206.736,246.972 207.414 C 248.711 208.141,250.400 209.549,250.400 210.272 C 250.400 210.562,250.560 210.800,250.757 210.800 C 250.953 210.800,251.222 211.234,251.355 211.764 C 251.683 213.071,253.987 215.378,255.487 215.901 C 256.946 216.409,258.800 217.944,258.800 218.644 C 258.800 218.918,259.036 219.381,259.325 219.671 C 259.613 219.962,260.107 220.785,260.422 221.500 C 260.737 222.215,261.212 222.800,261.478 222.800 C 261.743 222.800,262.104 223.036,262.280 223.323 C 262.456 223.611,263.230 224.094,264.000 224.397 C 265.671 225.053,266.987 226.264,267.373 227.500 C 267.527 227.995,267.822 228.400,268.027 228.400 C 268.236 228.400,268.400 230.391,268.400 232.920 C 268.400 237.724,268.779 239.182,270.202 239.854 C 271.182 240.316,272.800 239.773,272.800 238.982 C 272.800 238.709,273.053 238.388,273.362 238.270 C 273.672 238.151,274.046 237.502,274.194 236.827 C 274.342 236.152,274.590 235.600,274.746 235.600 C 274.901 235.600,275.338 235.074,275.718 234.431 C 276.137 233.722,276.880 233.158,277.604 232.999 C 278.262 232.855,278.800 232.593,278.800 232.417 C 278.800 232.241,279.340 231.873,280.000 231.600 C 280.660 231.327,281.200 230.864,281.200 230.571 C 281.200 230.279,281.436 229.896,281.723 229.720 C 282.011 229.544,282.494 228.789,282.796 228.043 C 283.519 226.254,284.684 225.076,286.400 224.399 C 287.170 224.095,287.944 223.611,288.120 223.323 C 288.296 223.036,288.701 222.800,289.020 222.800 C 289.339 222.800,289.600 222.524,289.600 222.187 C 289.600 221.851,289.870 221.471,290.200 221.345 C 290.682 221.160,290.800 220.268,290.800 216.817 C 290.800 210.660,291.672 208.749,295.038 207.532 C 295.843 207.241,296.587 206.777,296.693 206.501 C 296.799 206.226,297.114 206.000,297.394 206.000 C 297.674 206.000,298.127 205.460,298.400 204.800 C 298.673 204.140,299.019 203.600,299.168 203.600 C 299.317 203.600,299.663 202.982,299.936 202.226 C 300.251 201.354,300.865 200.661,301.616 200.329 C 302.267 200.040,302.800 199.686,302.800 199.541 C 302.800 199.397,303.340 199.090,304.000 198.860 C 304.660 198.630,305.200 198.252,305.200 198.021 C 305.200 197.789,305.440 197.600,305.732 197.600 C 306.025 197.600,306.520 197.105,306.832 196.500 C 307.144 195.895,307.489 195.310,307.599 195.200 C 307.710 195.090,308.098 194.354,308.463 193.564 C 308.897 192.625,309.589 191.940,310.463 191.587 C 311.198 191.289,311.890 190.945,312.000 190.822 C 312.110 190.699,312.695 190.344,313.300 190.032 C 313.905 189.720,314.400 189.244,314.400 188.975 C 314.400 188.706,314.670 188.382,315.000 188.255 C 315.487 188.068,315.600 187.125,315.600 183.241 C 315.600 179.522,315.734 178.324,316.200 177.857 C 316.530 177.527,316.800 177.090,316.800 176.887 C 316.800 176.398,319.224 174.400,319.816 174.400 C 320.070 174.400,320.693 174.040,321.200 173.600 C 321.707 173.160,322.275 172.800,322.461 172.800 C 322.648 172.800,322.800 172.549,322.800 172.243 C 322.800 171.936,323.052 171.589,323.360 171.471 C 323.668 171.352,324.050 170.478,324.209 169.528 C 324.368 168.578,324.665 167.694,324.869 167.564 C 325.094 167.421,325.228 146.700,325.210 114.870 L 325.181 62.411 323.480 60.661 C 322.544 59.698,321.374 58.782,320.879 58.625 C 319.789 58.279,317.318 55.803,316.971 54.708 C 316.833 54.272,315.927 53.134,314.958 52.179 L 313.196 50.443 304.211 50.321 L 295.226 50.200 293.413 48.280 C 292.416 47.224,291.599 46.144,291.598 45.880 C 291.598 45.616,290.796 44.635,289.817 43.700 L 288.037 42.000 250.181 42.000 C 212.572 42.000,212.324 41.995,212.114 41.194 C 211.872 40.268,210.679 41.290,210.185 42.848 C 210.054 43.261,209.786 43.600,209.591 43.600 C 208.204 43.600,208.773 46.478,210.502 48.207 L 212.295 50.000 233.493 50.000 L 254.692 50.000 256.046 51.194 C 256.791 51.850,257.506 52.390,257.636 52.394 C 258.674 52.422,258.800 55.369,258.800 79.648 L 258.800 104.859 256.809 106.829 C 255.713 107.913,254.611 108.800,254.359 108.800 C 253.752 108.800,250.000 112.687,250.000 113.315 C 250.000 113.585,249.325 114.396,248.500 115.117 C 246.371 116.979,246.075 117.200,245.704 117.200 C 245.215 117.200,241.601 121.185,241.596 121.731 C 241.590 122.329,239.064 124.800,238.457 124.800 C 238.206 124.800,238.000 124.980,238.000 125.200 C 238.000 125.443,236.211 125.600,233.434 125.600 L 228.867 125.600 227.281 127.100 C 226.408 127.925,225.567 129.019,225.410 129.532 C 225.068 130.654,222.957 132.752,221.674 133.245 C 219.812 133.959,104.304 133.688,103.274 132.967 C 101.766 131.911,100.478 130.477,100.172 129.513 C 100.013 129.011,99.144 127.925,98.242 127.100 L 96.600 125.600 92.100 125.600 C 89.367 125.600,87.600 125.443,87.600 125.200 C 87.600 124.980,87.394 124.800,87.143 124.800 C 86.625 124.800,84.011 122.370,84.004 121.883 C 83.999 121.517,83.765 121.216,81.682 118.900 C 80.841 117.965,79.939 117.200,79.677 117.200 C 79.415 117.200,79.200 117.020,79.200 116.800 C 79.200 116.580,78.964 116.400,78.676 116.400 C 77.980 116.400,75.600 114.051,75.600 113.365 C 75.600 112.510,71.863 108.881,70.676 108.583 C 70.084 108.435,69.599 108.198,69.598 108.057 C 69.597 107.915,68.967 107.115,68.198 106.278 L 66.800 104.755 66.800 79.551 C 66.800 63.733,66.947 54.073,67.195 53.610 C 67.412 53.204,68.177 52.271,68.895 51.536 L 70.200 50.200 91.746 50.090 L 113.291 49.980 115.046 48.175 C 116.634 46.540,117.355 44.800,116.443 44.800 C 116.247 44.800,115.977 44.363,115.843 43.828 C 115.709 43.293,115.362 42.618,115.073 42.328 C 114.785 42.038,114.361 41.464,114.133 41.054 C 113.737 40.344,113.707 40.349,113.496 41.154 M196.923 158.866 C 197.401 159.122,198.335 159.873,198.996 160.535 L 200.200 161.738 200.200 171.024 L 200.200 180.309 198.604 181.771 C 197.726 182.575,196.646 183.320,196.204 183.427 C 195.762 183.534,161.615 183.571,120.323 183.510 L 45.246 183.400 44.439 182.534 C 43.995 182.057,43.220 181.379,42.716 181.026 C 41.806 180.389,41.800 180.323,41.800 171.092 L 41.800 161.800 42.987 160.631 C 43.640 159.988,44.630 159.224,45.187 158.934 C 46.583 158.205,195.564 158.139,196.923 158.866 M231.751 301.600 C 232.543 302.370,233.193 303.225,233.196 303.500 C 233.198 303.775,233.380 304.000,233.600 304.000 C 233.820 304.000,234.000 304.201,234.000 304.447 C 234.000 305.029,236.971 308.000,237.553 308.000 C 237.799 308.000,238.000 308.180,238.000 308.400 C 238.000 308.620,238.225 308.802,238.500 308.804 C 241.000 308.826,243.030 316.243,241.836 320.997 C 241.532 322.208,239.275 324.602,238.084 324.976 C 237.146 325.271,234.000 328.292,234.000 328.897 C 234.000 329.290,233.521 329.894,231.600 331.922 L 230.200 333.400 137.775 333.400 L 45.351 333.400 43.460 331.482 L 41.569 329.564 41.685 316.482 L 41.800 303.400 42.987 302.231 C 43.640 301.588,44.630 300.824,45.187 300.532 C 46.021 300.096,62.457 300.020,138.255 300.101 L 230.310 300.200 231.751 301.600 " stroke="none" fill="#fcdc8c" fill-rule="evenodd"></path></g></svg>