
<svg xmlns="http://www.w3.org/2000/svg" version="1.1" xmlns:xlink="http://www.w3.org/1999/xlink" preserveAspectRatio="none" x="0px" y="0px" width="1000px" height="1000px" viewBox="0 0 1000 1000">
<defs>
<g id="Layer0_0_MEMBER_0_FILL">
<path fill="#8D1C79" stroke="none" d="
M 178.75 547.95
L 227.7 506 207.7 483.05 158.75 524 130.8 548.95 117.8 581.9 149.8 571.95 178.75 547.95
M 245.8 487.05
Q 245.95 483.15 243.65 480.05
L 236.65 471.05
Q 233.75 468.15 229.7 467.95 225.8 467.75 222.7 470.05
L 212.7 479.05 232.65 502 242.65 494.05
Q 245.55 491.15 245.8 487.05 Z"/>
</g>

<g id="Layer0_0_MEMBER_1_FILL">
<path fill="#8D1C79" stroke="none" d="
M 197.7 459.1
Q 197.7 454 194 450.5 190.4 447.1 185.75 447.1
L 174.75 447.1 174.75 460.1
Q 176.95 461.55 177.9 463.2 178.75 464.75 178.75 467.05 178.75 470.7 176.25 473.45 173.85 476.05 170.75 476.05 167 476.05 164.4 473.45 161.75 470.8 161.75 467.05 161.75 465.05 163 463.2 163.8 462.05 165.75 460.1
L 165.75 447.1 136.8 447.1 136.8 460.1
Q 138.4 460.9 139.55 462.85 140.8 464.9 140.8 467.05 140.8 470.8 138.2 473.45 135.55 476.05 131.8 476.05 128.85 476.05 126.3 473.05 123.8 470.15 123.8 467.05 123.8 461.45 127.8 460.1
L 127.8 447.1 98.85 447.1 98.85 460.1
Q 100.85 462.05 101.6 463.2 102.85 465.05 102.85 467.05 102.85 470.8 100.25 473.45 97.6 476.05 93.85 476.05 90.2 476.05 88 473.45 85.85 470.9 85.85 467.05 85.85 464.85 86.6 463.2 87.3 461.6 88.85 460.1
L 88.85 447.1 77.85 447.1
Q 73.2 447.1 69.65 450.5 65.9 454 65.9 459.1
L 65.9 610.9
Q 65.9 615.95 69.65 619.5 73.2 622.85 77.85 622.85
L 185.75 622.85
Q 190.4 622.85 194 619.5 197.7 615.95 197.7 610.9
L 197.7 540.95 155.75 577.9 105.85 591.9 125.8 540.95 144.8 524 197.7 479.05 197.7 459.1 Z"/>
</g>

<g id="Layer0_1_MEMBER_0_FILL">
<path fill="#4ABDE6" stroke="none" d="
M 308.45 472.45
Q 304.6 475.9 304.6 481.05
L 304.6 599.9
Q 304.6 605.05 308.45 608.55 312.2 611.9 317.55 611.9
L 505.3 611.9
Q 510.65 611.9 514.45 608.55 518.3 605.05 518.3 599.9
L 518.3 481.05
Q 518.3 475.9 514.45 472.45 510.65 469.05 505.3 469.05
L 317.55 469.05
Q 312.2 469.05 308.45 472.45 Z"/>
</g>

<g id="Layer0_1_MEMBER_1_FILL">
<path fill="#8D1C79" stroke="none" d="
M 318.55 450.1
L 318.55 588.9
Q 341.55 582.2 366.5 586.9 391.05 591.5 411.45 605.9 431.1 591.5 455.5 586.9 480.3 582.2 503.3 588.9
L 503.3 450.1
Q 478.5 442.35 455.15 446.2 430.35 450.35 411.45 467.05 391.85 450.35 366.9 446.2 343.35 442.35 318.55 450.1 Z"/>
</g>

<g id="Layer0_1_MEMBER_2_FILL">
<path fill="#FFFFFF" stroke="none" d="
M 397.45 485.05
Q 389.4 480.2 385.1 481.45 380.2 482.8 379.5 492.05
L 379.5 557.95
Q 379.5 563.1 382 565.1 384.95 567.4 390.45 563.95
L 451.4 529
Q 455.75 526.1 455.55 522.15 455.35 518.35 451.4 516
L 421.45 498.05 397.45 485.05 Z"/>
</g>

<g id="Layer0_2_MEMBER_0_FILL">
<path fill="#8D1C79" stroke="none" d="
M 735 467.05
Q 735 461.1 730.55 456.6 726.05 452.1 720.05 452.1
L 675.1 452.1
Q 675.1 457.7 674.1 461.35 672.8 466.05 670.1 466.05 667.7 466.65 662.6 466.45 657.15 466.05 655.15 466.05 655.1 466.05 652.3 467.3 650.15 468.25 650.15 467.05 649.5 465.75 648.65 461.1 648.6 460.8 647.15 452.1
L 601.2 452.1
Q 595.2 452.1 590.7 456.6 586.2 461.1 586.2 467.05
L 586.2 602.9
Q 586.2 608.9 590.7 613.4 595.2 617.85 601.2 617.85
L 720.05 617.85
Q 726.05 617.85 730.55 613.4 735 608.9 735 602.9
L 735 467.05 Z"/>
</g>

<g id="Layer0_2_MEMBER_1_FILL">
<path fill="#4ABDE6" stroke="none" d="
M 675.75 433.5
Q 669.35 427.1 661.1 427.1 652.3 427.1 646.15 433.5 640.15 439.7 640.15 448.1
L 640.15 452.1 615.2 452.1 615.2 464.05
Q 615.2 473.05 622.2 480.05 629.15 487.05 638.15 487.05
L 683.1 487.05
Q 692.65 487.05 699.45 480.05 706.05 473.2 706.05 464.05
L 706.05 452.1 681.1 452.1
Q 682.1 451.1 682.1 448.1 682.1 439.85 675.75 433.5 Z"/>
</g>

<g id="Layer0_2_MEMBER_2_FILL">
<path fill="#4ABDE6" stroke="none" d="
M 768 493.05
Q 770.9 485.05 765.4 479.3 763.1 476.95 760.55 476.75 757.8 476.55 756 479.05 752.9 482.8 731.65 515.75 721.05 532.25 711.05 547.95 711.05 548.45 705.45 541.6 697.5 531.9 693.1 527 689.45 524.1 685.85 524.5 682.45 524.9 680.1 528 678.75 530.05 680.75 535.1 682.4 539.35 685.1 542.95 694.55 559.7 699.7 567.7 708.1 580.6 712.05 581.9 712.55 581.9 715.05 582.15 717.45 582.15 718.05 580.9 727.6 568 746.8 533.6 764.4 502 768 493.05 Z"/>
</g>

<g id="Layer0_2_MEMBER_3_FILL">
<path fill="#FFFFFF" stroke="none" d="
M 689.1 590.9
Q 691.35 590.9 692.75 588.9 694.1 586.95 694.1 583.9 694.1 580.85 692.75 578.95 691.35 576.95 689.1 576.95
L 611.2 576.95
Q 608.95 576.95 607.6 578.95 606.2 580.85 606.2 583.9 606.2 586.95 607.6 588.9 609 590.9 611.2 590.9
L 689.1 590.9
M 671.1 556.95
Q 673.35 556.95 674.75 554.95 676.1 553 676.1 549.95 676.1 546.9 674.75 544.95 673.35 542.95 671.1 542.95
L 611.2 542.95
Q 609 542.95 607.6 544.95 606.2 546.9 606.2 549.95 606.2 553 607.6 554.95 609 556.95 611.2 556.95
L 671.1 556.95
M 671.1 523
Q 673.35 523 674.75 521 676.1 519.05 676.1 516 676.1 513.65 674.75 511.9 673.25 510 671.1 510
L 611.2 510
Q 609.05 510 607.6 511.9 606.2 513.65 606.2 516 606.2 519.05 607.6 521 609 523 611.2 523
L 671.1 523 Z"/>
</g>

<g id="Layer0_3_MEMBER_0_FILL">
<path fill="#8D1C79" stroke="none" d="
M 60.9 765.7
Q 60.9 778.85 68.25 790.4 75.35 801.5 86.85 807.65 68.8 813.65 57.4 830 45.9 846.4 45.9 866.55 45.9 889.5 64.25 896.75 71.95 899.8 84.25 900.8 92.55 901.5 108.85 901.5 125.1 901.5 133.25 900.8 145.4 899.8 152.9 896.75 170.75 889.55 170.75 866.55 170.75 846.05 158.8 829.5 147.25 813.55 128.8 806.65 140.1 801.35 146.95 790.3 153.8 779.1 153.8 765.7 153.8 746.95 140.2 733.35 126.55 719.75 107.85 719.75 88.45 719.75 74.65 733.35 60.9 746.85 60.9 765.7 Z"/>
</g>

<g id="Layer0_3_MEMBER_1_FILL">
<path fill="#4ABDE6" stroke="none" d="
M 149.65 695.15
Q 132.45 704.25 124.8 718.75 139.95 724.05 149.3 737.1 158.75 750.35 158.75 766.7 158.75 774.15 155.75 781.65 169.65 786.3 184.75 787.65 181.65 793.05 176.65 797.15 171.35 801.45 164.75 803.65 163.75 804.15 162.25 804.65 160.75 805.15 159.75 805.65 165.85 808.65 172.9 809.25 180.1 809.85 186.75 807.65 195.05 804.6 200.7 798.8 206.5 792.8 208.7 784.65 229.25 780.1 242.3 767.05 255.65 753.7 255.65 736.7 255.65 715.7 236.05 700.75 216.45 685.8 188.75 685.8 167.35 685.8 149.65 695.15 Z"/>
</g>

<g id="Layer0_3_MEMBER_2_FILL">
<path fill="#FFFFFF" stroke="none" d="
M 161.25 708.65
Q 159.75 710.3 159.75 712.75 159.75 718.75 165.75 718.75
L 209.7 718.75
Q 212.15 718.75 213.85 717.25 215.7 715.6 215.7 712.75 215.7 710.5 213.85 708.65 211.95 706.75 209.7 706.75
L 165.75 706.75
Q 162.9 706.75 161.25 708.65 Z"/>
</g>

<g id="Layer0_3_MEMBER_3_FILL">
<path fill="#FFFFFF" stroke="none" d="
M 228.2 741.35
Q 229.7 740 229.7 737.7 229.7 731.75 223.7 731.75
L 179.75 731.75
Q 177.3 731.75 175.65 733.25 173.75 734.85 173.75 737.7 173.75 739.85 175.65 741.35 177.4 742.7 179.75 742.7
L 223.7 742.7
Q 226.65 742.7 228.2 741.35 Z"/>
</g>

<g id="Layer0_3_MEMBER_4_FILL">
<path fill="#FFFFFF" stroke="none" d="
M 170.75 753.7
Q 168.5 753.7 166.65 755.6 164.75 757.45 164.75 759.7 164.75 761.95 166.65 763.85 168.5 765.7 170.75 765.7
L 215.7 765.7
Q 217.95 765.7 219.85 763.85 221.7 761.95 221.7 759.7 221.7 757.45 219.85 755.6 217.95 753.7 215.7 753.7
L 170.75 753.7 Z"/>
</g>

<g id="Layer0_3_MEMBER_5_FILL">
<path fill="#8D1C79" stroke="none" d="
M 235.3 840.95
Q 238.65 835.2 238.65 828.6 238.65 818.75 232.05 811.75 225.35 804.65 215.7 804.65 205.35 804.65 198.5 811.75 191.75 818.65 191.75 828.6 191.75 835.35 195.25 840.95 198.7 846.6 204.7 849.55 195.5 853.4 189.75 861.7 183.75 870.3 183.75 880.55 183.75 892.05 193 895.9 199.3 898.5 215.7 898.5 232.05 898.5 238.4 895.9 247.65 892.05 247.65 880.55 247.65 869.55 241.65 860.95 235.85 852.6 226.7 849.55 232.05 846.5 235.3 840.95 Z"/>
</g>

<g id="Layer0_4_MEMBER_0_FILL">
<path fill="#4ABDE6" stroke="none" d="
M 515.3 736.7
Q 510.3 736.7 508.3 737.7 504.3 739.7 502.35 741.7 499.35 744.7 499.35 746.7 498.85 747.7 498 749.2 497.35 750.45 497.35 751.7 497.35 753.7 499.35 757.7 499.85 758.7 500.85 760.2 501.85 761.7 502.35 762.7
L 508.3 765.7
Q 509.95 766.5 511.8 767.1 513.9 767.7 515.3 767.7 519.7 767.7 523.45 766.35 527 765 529.3 762.7 531.6 760.4 532.95 757.6 534.3 754.65 534.3 751.7 534.3 749.7 534.2 748.7 533.95 747.05 533.3 745.7 532.6 744.35 531.7 743.2 531.05 742.45 529.3 740.7
L 523.3 737.7
Q 521.95 737.05 519.7 736.85 518.3 736.7 515.3 736.7
M 499.35 692.8
Q 500 691.45 501.45 690.45 502.3 689.8 504.3 688.8
L 510.3 685.8
Q 510.95 685.15 512.45 684.95 513.3 684.8 515.3 684.8
L 519.3 684.8
Q 519.8 684.8 521.3 685.3 522.8 685.8 523.3 685.8 525.3 687.8 526.3 687.8 526.3 688.2 526.8 689.45 527.3 690.7 527.3 691.8 527.3 693.1 526.05 694.75 525.3 695.75 523.3 697.75
L 514.3 703.75
Q 512.8 705.25 509.8 707.75 506.8 710.25 505.3 711.75 503.35 714.7 502.6 716.25 501.35 718.75 501.35 720.75
L 502.35 732.7 531.3 732.7 531.3 724.75
Q 531.3 723 531.55 722.4 531.95 721.45 533.3 720.75 533.9 719.55 535.3 718.4 536.8 717.25 537.3 716.75 538.3 715.75 540.3 714.25 542.25 712.75 543.25 711.75 547.45 710.35 549.25 706.75 553.25 702.75 554.25 700.75 555.25 697.75 555.65 696.25 556.25 693.75 556.25 691.8 556.25 684.8 553.25 678.8 550.5 673.3 545.25 669.8 540.75 665.3 533.3 663.8 530.6 662.45 526.55 662.05 524.05 661.8 518.3 661.8 507.95 661.8 496.35 666.8 487.6 670.55 477.35 680.8
L 494.35 696.75
Q 496.1 695 496.85 694.4 498 693.45 499.35 692.8 Z"/>
</g>

<g id="Layer0_4_MEMBER_1_FILL">
<path fill="#8D1C79" stroke="none" d="
M 401.45 696.75
Q 381.35 696.75 366.85 711.6 352.5 726.4 352.5 746.7 352.5 760.9 360.15 772.8 367.7 784.65 380.5 790.65 360.95 797.4 348.8 814.5 336.55 831.65 336.55 852.55 336.55 877.5 356.15 885.4 364.3 888.65 377.4 889.75 386.15 890.5 403.45 890.5 420.7 890.5 429.35 889.75 442.25 888.65 450.25 885.4 469.35 877.55 469.35 852.55 469.35 846.35 468.5 841.1 467.55 835.4 465.35 829.6
L 476.35 832.6
Q 481.75 834.15 486.75 831.35 491.9 828.45 493.35 822.6
L 510.3 790.65 516.3 790.65
Q 521.4 790.65 524.95 786.9 528.3 783.35 528.3 778.65 528.3 769.05 518.3 770.65
L 499.35 770.65
Q 495.55 769.95 491.75 771.9 487.85 773.95 486.35 777.65
L 472.35 802.65 424.45 789.65
Q 436.7 783.5 443.9 772.3 451.4 760.65 451.4 746.7 451.4 726.3 436.9 711.6 422.25 696.75 401.45 696.75 Z"/>
</g>
</defs>

<g transform="matrix( 5.4788665771484375, 0, 0, 5.4806365966796875, -1398.55,-2450.4) ">
<use xlink:href="#Layer0_0_MEMBER_0_FILL"/>
</g>

<g transform="matrix( 5.4788665771484375, 0, 0, 5.4806365966796875, -1398.55,-2450.4) ">
<use xlink:href="#Layer0_0_MEMBER_1_FILL"/>
</g>

<g transform="matrix( 4.580535888671875, 0, 0, 5.073394775390625, -282.95,-2325) ">
<use xlink:href="#Layer0_1_MEMBER_0_FILL"/>
</g>

<g transform="matrix( 4.580535888671875, 0, 0, 5.073394775390625, -282.95,-2325) ">
<use xlink:href="#Layer0_1_MEMBER_1_FILL"/>
</g>

<g transform="matrix( 4.580535888671875, 0, 0, 5.073394775390625, -282.95,-2325) ">
<use xlink:href="#Layer0_1_MEMBER_2_FILL"/>
</g>

<g transform="matrix( 5.1451873779296875, 0, 0, 5.1465911865234375, -1903.8,-1352.75) ">
<use xlink:href="#Layer0_2_MEMBER_0_FILL"/>
</g>

<g transform="matrix( 5.1451873779296875, 0, 0, 5.1465911865234375, -1903.8,-1352.75) ">
<use xlink:href="#Layer0_2_MEMBER_1_FILL"/>
</g>

<g transform="matrix( 5.1451873779296875, 0, 0, 5.1465911865234375, -1903.8,-1352.75) ">
<use xlink:href="#Layer0_2_MEMBER_2_FILL"/>
</g>

<g transform="matrix( 5.1451873779296875, 0, 0, 5.1465911865234375, -1903.8,-1352.75) ">
<use xlink:href="#Layer0_2_MEMBER_3_FILL"/>
</g>

<g transform="matrix( 4.608673095703125, 0, 0, 4.5438079833984375, -1195.95,-2172.4) ">
<use xlink:href="#Layer0_3_MEMBER_0_FILL"/>
</g>

<g transform="matrix( 4.608673095703125, 0, 0, 4.5438079833984375, -1195.95,-2172.4) ">
<use xlink:href="#Layer0_3_MEMBER_1_FILL"/>
</g>

<g transform="matrix( 4.608673095703125, 0, 0, 4.5438079833984375, -1195.95,-2172.4) ">
<use xlink:href="#Layer0_3_MEMBER_2_FILL"/>
</g>

<g transform="matrix( 4.608673095703125, 0, 0, 4.5438079833984375, -1195.95,-2172.4) ">
<use xlink:href="#Layer0_3_MEMBER_3_FILL"/>
</g>

<g transform="matrix( 4.608673095703125, 0, 0, 4.5438079833984375, -1195.95,-2172.4) ">
<use xlink:href="#Layer0_3_MEMBER_4_FILL"/>
</g>

<g transform="matrix( 4.608673095703125, 0, 0, 4.5438079833984375, -1195.95,-2172.4) ">
<use xlink:href="#Layer0_3_MEMBER_5_FILL"/>
</g>

<g transform="matrix( 4.2961578369140625, 0, 0, 4.2966461181640625, -1422.2,-2834.2) ">
<use xlink:href="#Layer0_4_MEMBER_0_FILL"/>
</g>

<g transform="matrix( 4.2961578369140625, 0, 0, 4.2966461181640625, -1422.2,-2834.2) ">
<use xlink:href="#Layer0_4_MEMBER_1_FILL"/>
</g>
</svg>
