<svg width="300" height="300" xmlns="http://www.w3.org/2000/svg">
 <defs>
  <style type="text/css">
   <![CDATA[
    .fil1 {fill:#792177}
    .fil0 {fill:#79BCE5}
   ]]>
  </style>
 </defs>
 <g>
  <title>background</title>
  <rect fill="none" id="canvas_background" height="302" width="302" y="-1" x="-1"/>
 </g>
 <g>
  <title>Layer 1</title>
  <g id="Capa 1">
   <path id="svg_1" d="m181,52c6,-6 12,-11 19,-14c7,-3 14,-5 22,-5c6,0 11,0 15,2c5,1 9,3 12,6c3,2 6,5 8,9c2,4 3,8 3,13c0,3 -1,6 -2,9c-1,2 -3,4 -5,6c-1,2 -3,4 -6,5c-2,2 -4,3 -6,5c-1,1 -3,2 -4,4c-2,1 -2,2 -2,4l0,8l-29,0l-1,-12c0,-3 2,-6 4,-9c3,-3 6,-5 9,-8c3,-2 6,-4 9,-6c2,-2 4,-4 4,-6c0,-2 -1,-3 -1,-4c-1,0 -2,-1 -3,-2c-1,0 -3,-1 -4,-1c-1,0 -3,0 -4,0c-2,0 -4,0 -5,1c-2,1 -4,2 -6,3c-2,1 -4,2 -5,4c-2,1 -3,2 -5,4l-17,-16zm20,71c0,-2 1,-3 2,-5c0,-2 2,-4 3,-5c2,-2 4,-3 6,-4c2,-1 5,-1 7,-1c3,0 6,0 8,1c2,1 4,2 6,3c2,2 3,3 4,5c1,2 1,4 1,6c0,4 -2,8 -5,11c-3,3 -8,5 -14,5c-2,0 -5,-1 -7,-2c-2,-1 -4,-2 -6,-3c-1,-2 -2,-3 -3,-5c-1,-2 -2,-4 -2,-6z" class="fil0"/>
   <path id="svg_2" d="m169,201c3,8 4,15 4,23c0,37 -29,38 -66,38c-37,0 -67,-1 -67,-38c0,-28 18,-53 44,-62c-17,-8 -28,-25 -28,-44c0,-27 22,-50 49,-50c28,0 50,23 50,50c0,19 -11,35 -27,43l48,13l14,-25c2,-5 8,-8 13,-7c2,0 3,0 4,0l15,0c6,-1 10,1 10,8l0,0c0,6 -5,12 -12,12l-6,0c0,0 0,0 0,0l-17,32c0,0 0,0 0,0l0,0c-2,8 -10,12 -17,10l-11,-3z" class="fil1"/>
   <path id="svg_3" d="m2.5,5" opacity="0.5" fill-opacity="null" stroke-opacity="null" stroke-width="null" stroke="null" fill="null"/>
  </g>
 </g>
</svg>