<svg width="280" height="280" xmlns="http://www.w3.org/2000/svg">
 <defs>
  <style type="text/css">
   <![CDATA[
    .fil0 {fill:#792177}
    .fil1 {fill:#79BCE5}
    .fil2 {fill:#FFFFFF}
   ]]>
  </style>
 </defs>
 <g>
  <title>background</title>
  <rect fill="none" id="canvas_background" height="282" width="282" y="-1" x="-1"/>
 </g>
 <g>
  <title>Layer 1</title>
  <g id="Capa 1">
   <path id="svg_1" d="m61,57l46,0c1,6 2,13 3,15c0,2 4,-1 5,-1c4,0 11,1 15,0c4,0 5,-8 5,-14l45,0c8,0 15,7 15,15l0,136c0,8 -7,15 -15,15l-119,0c-8,0 -15,-7 -15,-15l0,-136c0,-8 7,-15 15,-15z" class="fil0"/>
   <path id="svg_2" d="m166,57l0,12c0,12 -10,23 -23,23l-45,0c-12,0 -23,-11 -23,-23l0,-12l25,0c0,-1 0,-3 0,-4c0,-11 9,-21 21,-21c11,0 21,10 21,21c0,1 0,3 -1,4l25,0zm-45,-15c6,0 11,5 11,11c0,7 -5,12 -11,12c-7,0 -12,-5 -12,-12c0,-6 5,-11 12,-11z" class="fil1"/>
   <path id="svg_3" d="m140,133c3,-4 8,-5 13,-1c9,10 18,22 18,21c0,0 40,-63 45,-69c5,-7 16,3 12,14c-4,10 -36,69 -50,88c-1,2 -5,1 -6,1c-6,-2 -18,-23 -27,-39c-3,-4 -7,-12 -5,-15z" class="fil1"/>
   <path id="svg_4" d="m71,182l78,0c3,0 5,3 5,7l0,0c0,4 -2,7 -5,7l-78,0c-3,0 -5,-3 -5,-7l0,0c0,-4 2,-7 5,-7zm0,-67l60,0c3,0 5,3 5,6l0,0c0,4 -2,7 -5,7l-60,0c-3,0 -5,-3 -5,-7l0,0c0,-3 2,-6 5,-6zm0,33l60,0c3,0 5,3 5,7l0,0c0,4 -2,7 -5,7l-60,0c-3,0 -5,-3 -5,-7l0,0c0,-4 2,-7 5,-7z" class="fil2"/>
  </g>
 </g>
</svg>