
<svg xmlns="http://www.w3.org/2000/svg" version="1.1" xmlns:xlink="http://www.w3.org/1999/xlink" preserveAspectRatio="none" x="0px" y="0px" width="1000px" height="1000px" viewBox="0 0 1000 1000">
<defs>
<g id="Layer0_0_MEMBER_0_FILL">
<path fill="#8D1C79" stroke="none" d="
M 178.75 547.95
L 227.7 506 207.7 483.05 158.75 524 130.8 548.95 117.8 581.9 149.8 571.95 178.75 547.95
M 245.8 487.05
Q 245.95 483.15 243.65 480.05
L 236.65 471.05
Q 233.75 468.15 229.7 467.95 225.8 467.75 222.7 470.05
L 212.7 479.05 232.65 502 242.65 494.05
Q 245.55 491.15 245.8 487.05 Z"/>
</g>

<g id="Layer0_0_MEMBER_1_FILL">
<path fill="#8D1C79" stroke="none" d="
M 197.7 459.1
Q 197.7 454 194 450.5 190.4 447.1 185.75 447.1
L 174.75 447.1 174.75 460.1
Q 176.95 461.55 177.9 463.2 178.75 464.75 178.75 467.05 178.75 470.7 176.25 473.45 173.85 476.05 170.75 476.05 167 476.05 164.4 473.45 161.75 470.8 161.75 467.05 161.75 465.05 163 463.2 163.8 462.05 165.75 460.1
L 165.75 447.1 136.8 447.1 136.8 460.1
Q 138.4 460.9 139.55 462.85 140.8 464.9 140.8 467.05 140.8 470.8 138.2 473.45 135.55 476.05 131.8 476.05 128.85 476.05 126.3 473.05 123.8 470.15 123.8 467.05 123.8 461.45 127.8 460.1
L 127.8 447.1 98.85 447.1 98.85 460.1
Q 100.85 462.05 101.6 463.2 102.85 465.05 102.85 467.05 102.85 470.8 100.25 473.45 97.6 476.05 93.85 476.05 90.2 476.05 88 473.45 85.85 470.9 85.85 467.05 85.85 464.85 86.6 463.2 87.3 461.6 88.85 460.1
L 88.85 447.1 77.85 447.1
Q 73.2 447.1 69.65 450.5 65.9 454 65.9 459.1
L 65.9 610.9
Q 65.9 615.95 69.65 619.5 73.2 622.85 77.85 622.85
L 185.75 622.85
Q 190.4 622.85 194 619.5 197.7 615.95 197.7 610.9
L 197.7 540.95 155.75 577.9 105.85 591.9 125.8 540.95 144.8 524 197.7 479.05 197.7 459.1 Z"/>
</g>

<g id="Layer0_1_MEMBER_0_FILL">
<path fill="#4ABDE6" stroke="none" d="
M 308.45 472.45
Q 304.6 475.9 304.6 481.05
L 304.6 599.9
Q 304.6 605.05 308.45 608.55 312.2 611.9 317.55 611.9
L 505.3 611.9
Q 510.65 611.9 514.45 608.55 518.3 605.05 518.3 599.9
L 518.3 481.05
Q 518.3 475.9 514.45 472.45 510.65 469.05 505.3 469.05
L 317.55 469.05
Q 312.2 469.05 308.45 472.45 Z"/>
</g>

<g id="Layer0_1_MEMBER_1_FILL">
<path fill="#8D1C79" stroke="none" d="
M 318.55 450.1
L 318.55 588.9
Q 341.55 582.2 366.5 586.9 391.05 591.5 411.45 605.9 431.1 591.5 455.5 586.9 480.3 582.2 503.3 588.9
L 503.3 450.1
Q 478.5 442.35 455.15 446.2 430.35 450.35 411.45 467.05 391.85 450.35 366.9 446.2 343.35 442.35 318.55 450.1 Z"/>
</g>

<g id="Layer0_1_MEMBER_2_FILL">
<path fill="#FFFFFF" stroke="none" d="
M 397.45 485.05
Q 389.4 480.2 385.1 481.45 380.2 482.8 379.5 492.05
L 379.5 557.95
Q 379.5 563.1 382 565.1 384.95 567.4 390.45 563.95
L 451.4 529
Q 455.75 526.1 455.55 522.15 455.35 518.35 451.4 516
L 421.45 498.05 397.45 485.05 Z"/>
</g>

<g id="Layer0_2_MEMBER_0_FILL">
<path fill="#8D1C79" stroke="none" d="
M 735 467.05
Q 735 461.1 730.55 456.6 726.05 452.1 720.05 452.1
L 675.1 452.1
Q 675.1 457.7 674.1 461.35 672.8 466.05 670.1 466.05 667.7 466.65 662.6 466.45 657.15 466.05 655.15 466.05 655.1 466.05 652.3 467.3 650.15 468.25 650.15 467.05 649.5 465.75 648.65 461.1 648.6 460.8 647.15 452.1
L 601.2 452.1
Q 595.2 452.1 590.7 456.6 586.2 461.1 586.2 467.05
L 586.2 602.9
Q 586.2 608.9 590.7 613.4 595.2 617.85 601.2 617.85
L 720.05 617.85
Q 726.05 617.85 730.55 613.4 735 608.9 735 602.9
L 735 467.05 Z"/>
</g>

<g id="Layer0_2_MEMBER_1_FILL">
<path fill="#4ABDE6" stroke="none" d="
M 675.75 433.5
Q 669.35 427.1 661.1 427.1 652.3 427.1 646.15 433.5 640.15 439.7 640.15 448.1
L 640.15 452.1 615.2 452.1 615.2 464.05
Q 615.2 473.05 622.2 480.05 629.15 487.05 638.15 487.05
L 683.1 487.05
Q 692.65 487.05 699.45 480.05 706.05 473.2 706.05 464.05
L 706.05 452.1 681.1 452.1
Q 682.1 451.1 682.1 448.1 682.1 439.85 675.75 433.5 Z"/>
</g>

<g id="Layer0_2_MEMBER_2_FILL">
<path fill="#4ABDE6" stroke="none" d="
M 768 493.05
Q 770.9 485.05 765.4 479.3 763.1 476.95 760.55 476.75 757.8 476.55 756 479.05 752.9 482.8 731.65 515.75 721.05 532.25 711.05 547.95 711.05 548.45 705.45 541.6 697.5 531.9 693.1 527 689.45 524.1 685.85 524.5 682.45 524.9 680.1 528 678.75 530.05 680.75 535.1 682.4 539.35 685.1 542.95 694.55 559.7 699.7 567.7 708.1 580.6 712.05 581.9 712.55 581.9 715.05 582.15 717.45 582.15 718.05 580.9 727.6 568 746.8 533.6 764.4 502 768 493.05 Z"/>
</g>

<g id="Layer0_2_MEMBER_3_FILL">
<path fill="#FFFFFF" stroke="none" d="
M 689.1 590.9
Q 691.35 590.9 692.75 588.9 694.1 586.95 694.1 583.9 694.1 580.85 692.75 578.95 691.35 576.95 689.1 576.95
L 611.2 576.95
Q 608.95 576.95 607.6 578.95 606.2 580.85 606.2 583.9 606.2 586.95 607.6 588.9 609 590.9 611.2 590.9
L 689.1 590.9
M 671.1 556.95
Q 673.35 556.95 674.75 554.95 676.1 553 676.1 549.95 676.1 546.9 674.75 544.95 673.35 542.95 671.1 542.95
L 611.2 542.95
Q 609 542.95 607.6 544.95 606.2 546.9 606.2 549.95 606.2 553 607.6 554.95 609 556.95 611.2 556.95
L 671.1 556.95
M 671.1 523
Q 673.35 523 674.75 521 676.1 519.05 676.1 516 676.1 513.65 674.75 511.9 673.25 510 671.1 510
L 611.2 510
Q 609.05 510 607.6 511.9 606.2 513.65 606.2 516 606.2 519.05 607.6 521 609 523 611.2 523
L 671.1 523 Z"/>
</g>
</defs>

<g transform="matrix( 5.4788665771484375, 0, 0, 5.4806365966796875, -1398.55,-2450.4) ">
<use xlink:href="#Layer0_0_MEMBER_0_FILL"/>
</g>

<g transform="matrix( 5.4788665771484375, 0, 0, 5.4806365966796875, -1398.55,-2450.4) ">
<use xlink:href="#Layer0_0_MEMBER_1_FILL"/>
</g>

<g transform="matrix( 4.580535888671875, 0, 0, 5.073394775390625, -282.95,-2325) ">
<use xlink:href="#Layer0_1_MEMBER_0_FILL"/>
</g>

<g transform="matrix( 4.580535888671875, 0, 0, 5.073394775390625, -282.95,-2325) ">
<use xlink:href="#Layer0_1_MEMBER_1_FILL"/>
</g>

<g transform="matrix( 4.580535888671875, 0, 0, 5.073394775390625, -282.95,-2325) ">
<use xlink:href="#Layer0_1_MEMBER_2_FILL"/>
</g>

<g transform="matrix( 5.1451873779296875, 0, 0, 5.1465911865234375, -2976.15,-2189.55) ">
<use xlink:href="#Layer0_2_MEMBER_0_FILL"/>
</g>

<g transform="matrix( 5.1451873779296875, 0, 0, 5.1465911865234375, -2976.15,-2189.55) ">
<use xlink:href="#Layer0_2_MEMBER_1_FILL"/>
</g>

<g transform="matrix( 5.1451873779296875, 0, 0, 5.1465911865234375, -2976.15,-2189.55) ">
<use xlink:href="#Layer0_2_MEMBER_2_FILL"/>
</g>

<g transform="matrix( 5.1451873779296875, 0, 0, 5.1465911865234375, -2976.15,-2189.55) ">
<use xlink:href="#Layer0_2_MEMBER_3_FILL"/>
</g>
</svg>
