<svg width="280" height="280" xmlns="http://www.w3.org/2000/svg">
 <defs>
  <style type="text/css">
   <![CDATA[
    .fil0 {fill:#792177}
    .fil1 {fill:#79BCE5}
    .fil2 {fill:#FFFFFF}
   ]]>
  </style>
 </defs>
 <g>
  <title>background</title>
  <rect fill="none" id="canvas_background" height="282" width="282" y="-1" x="-1"/>
 </g>
 <g>
  <title>Layer 1</title>
  <g id="Capa 1">
   <path id="svg_1" d="m93,128c24,9 42,32 42,60c0,34 -27,35 -62,35c-35,0 -63,-1 -63,-35c0,-27 17,-51 41,-59c-15,-8 -26,-24 -26,-42c0,-25 21,-46 47,-46c25,0 46,21 46,46c0,18 -10,34 -25,41z" class="fil0"/>
   <path id="svg_2" d="m153,7c37,0 67,23 67,51c0,23 -20,42 -47,48c-3,11 -11,19 -22,23c-9,3 -19,2 -27,-2c2,-1 3,-1 5,-2c9,-3 16,-9 20,-16c-11,-1 -20,-3 -29,-6c2,-5 3,-10 3,-15c0,-22 -14,-41 -34,-48c10,-19 35,-33 64,-33z" class="fil1"/>
   <path id="svg_3" d="m130,28l44,0c3,0 6,3 6,6l0,0c0,4 -3,6 -6,6l-44,0c-4,0 -6,-2 -6,-6l0,0c0,-3 2,-6 6,-6z" class="fil2"/>
   <path id="svg_4" d="m144,53l44,0c4,0 6,2 6,6l0,0c0,3 -2,5 -6,5l-44,0c-3,0 -6,-2 -6,-5l0,0c0,-4 3,-6 6,-6z" class="fil2"/>
   <path id="svg_5" d="m135,75l45,0c3,0 6,3 6,6l0,0c0,3 -3,6 -6,6l-45,0c-3,0 -6,-3 -6,-6l0,0c0,-3 3,-6 6,-6z" class="fil2"/>
   <path id="svg_6" d="m191,171c12,4 21,16 21,31c0,17 -14,18 -32,18c-18,0 -32,-1 -32,-18c0,-14 9,-26 21,-31c-8,-4 -13,-12 -13,-21c0,-13 10,-24 24,-24c13,0 23,11 23,24c0,9 -5,17 -12,21z" class="fil0"/>
  </g>
 </g>
</svg>