<svg width="280" height="280" xmlns="http://www.w3.org/2000/svg">
 <defs>
  <style type="text/css">
   <![CDATA[
    .fil1 {fill:#792177}
    .fil0 {fill:#79BCE5}
    .fil2 {fill:#FFFFFF}
   ]]>
  </style>
 </defs>
 <g>
  <title>background</title>
  <rect fill="none" id="canvas_background" height="282" width="282" y="-1" x="-1"/>
 </g>
 <g>
  <title>Layer 1</title>
  <g id="Capa 1">
   <path id="svg_1" d="m44,227l188,0c7,0 13,-5 13,-12l0,-119c0,-7 -6,-12 -13,-12l-188,0c-7,0 -13,5 -13,12l0,119c0,7 6,12 13,12z" class="fil0"/>
   <path id="svg_2" d="m45,65c32,-10 66,-6 93,17c26,-23 60,-27 92,-17l0,139c-31,-9 -66,-2 -92,17c-27,-19 -62,-26 -93,-17l0,-139z" class="fil1"/>
   <path id="svg_3" d="m178,144l-31,18l-30,17c-8,5 -11,0 -11,-6l0,-36l0,-30c1,-13 8,-13 18,-7l24,13l30,18c5,3 6,9 0,13z" class="fil2"/>
  </g>
 </g>
</svg>