
<svg xmlns="http://www.w3.org/2000/svg" version="1.1" xmlns:xlink="http://www.w3.org/1999/xlink" preserveAspectRatio="none" x="0px" y="0px" width="1000px" height="1000px" viewBox="0 0 1000 1000">
<defs>
<g id="Layer0_0_MEMBER_0_FILL">
<path fill="#8D1C79" stroke="none" d="
M 178.75 547.95
L 227.7 506 207.7 483.05 158.75 524 130.8 548.95 117.8 581.9 149.8 571.95 178.75 547.95
M 245.8 487.05
Q 245.95 483.15 243.65 480.05
L 236.65 471.05
Q 233.75 468.15 229.7 467.95 225.8 467.75 222.7 470.05
L 212.7 479.05 232.65 502 242.65 494.05
Q 245.55 491.15 245.8 487.05 Z"/>
</g>

<g id="Layer0_0_MEMBER_1_FILL">
<path fill="#8D1C79" stroke="none" d="
M 197.7 459.1
Q 197.7 454 194 450.5 190.4 447.1 185.75 447.1
L 174.75 447.1 174.75 460.1
Q 176.95 461.55 177.9 463.2 178.75 464.75 178.75 467.05 178.75 470.7 176.25 473.45 173.85 476.05 170.75 476.05 167 476.05 164.4 473.45 161.75 470.8 161.75 467.05 161.75 465.05 163 463.2 163.8 462.05 165.75 460.1
L 165.75 447.1 136.8 447.1 136.8 460.1
Q 138.4 460.9 139.55 462.85 140.8 464.9 140.8 467.05 140.8 470.8 138.2 473.45 135.55 476.05 131.8 476.05 128.85 476.05 126.3 473.05 123.8 470.15 123.8 467.05 123.8 461.45 127.8 460.1
L 127.8 447.1 98.85 447.1 98.85 460.1
Q 100.85 462.05 101.6 463.2 102.85 465.05 102.85 467.05 102.85 470.8 100.25 473.45 97.6 476.05 93.85 476.05 90.2 476.05 88 473.45 85.85 470.9 85.85 467.05 85.85 464.85 86.6 463.2 87.3 461.6 88.85 460.1
L 88.85 447.1 77.85 447.1
Q 73.2 447.1 69.65 450.5 65.9 454 65.9 459.1
L 65.9 610.9
Q 65.9 615.95 69.65 619.5 73.2 622.85 77.85 622.85
L 185.75 622.85
Q 190.4 622.85 194 619.5 197.7 615.95 197.7 610.9
L 197.7 540.95 155.75 577.9 105.85 591.9 125.8 540.95 144.8 524 197.7 479.05 197.7 459.1 Z"/>
</g>
</defs>

<g transform="matrix( 5.4788665771484375, 0, 0, 5.4806365966796875, -354.5,-2433) ">
<use xlink:href="#Layer0_0_MEMBER_0_FILL"/>
</g>

<g transform="matrix( 5.4788665771484375, 0, 0, 5.4806365966796875, -354.5,-2433) ">
<use xlink:href="#Layer0_0_MEMBER_1_FILL"/>
</g>
</svg>
